<?xml version="1.0" encoding="UTF-8" standalone="no"?>
<svg
   xmlns:dc="http://purl.org/dc/elements/1.1/"
   xmlns:cc="http://creativecommons.org/ns#"
   xmlns:rdf="http://www.w3.org/1999/02/22-rdf-syntax-ns#"
   xmlns:svg="http://www.w3.org/2000/svg"
   xmlns="http://www.w3.org/2000/svg"
   xmlns:sodipodi="http://sodipodi.sourceforge.net/DTD/sodipodi-0.dtd"
   xmlns:inkscape="http://www.inkscape.org/namespaces/inkscape"
   width="128mm"
   height="40mm"
   viewBox="0 0 128 40"
   version="1.1"
   id="svg2800"
   inkscape:version="1.0.1 (3bc2e813f5, 2020-09-07)"
   sodipodi:docname="dibujo.svg">
  <defs
     id="defs2794">
    <clipPath
       clipPathUnits="userSpaceOnUse"
       id="clipPath1592">
      <path
         d="M 0,623.622 H 850.394 V 0 H 0 Z"
         id="path1590" />
    </clipPath>
  </defs>
  <sodipodi:namedview
     id="base"
     pagecolor="#ffffff"
     bordercolor="#666666"
     borderopacity="1.0"
     inkscape:pageopacity="0.0"
     inkscape:pageshadow="2"
     inkscape:zoom="0.35"
     inkscape:cx="412.1432"
     inkscape:cy="391.20955"
     inkscape:document-units="mm"
     inkscape:current-layer="layer1"
     inkscape:document-rotation="0"
     showgrid="false"
     inkscape:window-width="1269"
     inkscape:window-height="739"
     inkscape:window-x="0"
     inkscape:window-y="0"
     inkscape:window-maximized="0" />
  <metadata
     id="metadata2797">
    <rdf:RDF>
      <cc:Work
         rdf:about="">
        <dc:format>image/svg+xml</dc:format>
        <dc:type
           rdf:resource="http://purl.org/dc/dcmitype/StillImage" />
        <dc:title></dc:title>
      </cc:Work>
    </rdf:RDF>
  </metadata>
  <g
     inkscape:label="Capa 1"
     inkscape:groupmode="layer"
     id="layer1">
    <g
       id="g1586"
       transform="matrix(0.88524424,0,0,-0.88524424,-16.432782,541.58388)">
      <g
         id="g1588"
         clip-path="url(#clipPath1592)">
        <g
           id="g1594"
           transform="translate(82.6239,605.1389)">
          <path
             d="m 0,0 v 0.029 h -59.947 v -7.208 h 9.36 v -26.643 h 7.639 v 6.842 19.801 H -0.943 V -7.196 C 4.042,-7.489 8,-11.801 8,-17.08 c 0,-5.278 -3.958,-9.59 -8.943,-9.883 v -0.017 h -39.1 v -6.842 H 0 v 0.029 c 8.898,0.501 15.961,7.873 15.961,16.897 C 15.961,-7.873 8.898,-0.5 0,0 Z"
             style="fill:none;stroke:#e52822;stroke-width:0.75;stroke-linecap:butt;stroke-linejoin:miter;stroke-miterlimit:10;stroke-dasharray:none;stroke-opacity:1"
             id="path1596" />
        </g>
        <g
           id="g1598"
           transform="translate(81.909,583.9528)">
          <path
             d="m 0,0 h -34.32 c -0.374,0 -0.677,-0.455 -0.677,-1.016 0,-0.561 0.303,-1.015 0.677,-1.015 H 0 c 0.374,0 0.677,0.454 0.677,1.015 C 0.677,-0.455 0.374,0 0,0 Z"
             style="fill:none;stroke:#e52822;stroke-width:0.75;stroke-linecap:butt;stroke-linejoin:miter;stroke-miterlimit:10;stroke-dasharray:none;stroke-opacity:1"
             id="path1600" />
        </g>
        <g
           id="g1602"
           transform="translate(85.3441,589.0861)">
          <path
             d="m 0,0 v 0 h -37.718 c -0.395,0 -0.714,-0.455 -0.714,-1.015 0,-0.561 0.319,-1.016 0.714,-1.016 H 0 c 0.395,0 0.714,0.455 0.714,1.016 C 0.714,-0.455 0.395,0 0,0 Z"
             style="fill:none;stroke:#e52822;stroke-width:0.75;stroke-linecap:butt;stroke-linejoin:miter;stroke-miterlimit:10;stroke-dasharray:none;stroke-opacity:1"
             id="path1604" />
        </g>
        <g
           id="g1606"
           transform="translate(81.909,594.2199)">
          <path
             d="m 0,0 h -34.32 c -0.374,0 -0.677,-0.455 -0.677,-1.015 0,-0.561 0.303,-1.016 0.677,-1.016 H 0 c 0.374,0 0.677,0.455 0.677,1.016 C 0.677,-0.455 0.374,0 0,0 Z"
             style="fill:none;stroke:#e52822;stroke-width:0.75;stroke-linecap:butt;stroke-linejoin:miter;stroke-miterlimit:10;stroke-dasharray:none;stroke-opacity:1"
             id="path1608" />
        </g>
        <g
           id="g1610"
           transform="translate(108.7943,603.5383)">
          <path
             d="M 0,0 H -2.429 V 2.112 H 4.752 V 0 H 2.323 V -12.672 H 0 Z"
             style="fill:none;stroke:#e52822;stroke-width:0.75;stroke-linecap:butt;stroke-linejoin:miter;stroke-miterlimit:10;stroke-dasharray:none;stroke-opacity:1"
             id="path1612" />
        </g>
        <g
           id="g1614"
           transform="translate(118.0238,595.7663)">
          <path
             d="M 0,0 -1.035,7.307 H -1.077 L -2.091,0 Z M -2.534,9.884 H 0.612 L 3.02,-4.9 H 0.697 l -0.422,2.936 v -0.042 h -2.64 L -2.788,-4.9 h -2.154 z"
             style="fill:none;stroke:#e52822;stroke-width:0.75;stroke-linecap:butt;stroke-linejoin:miter;stroke-miterlimit:10;stroke-dasharray:none;stroke-opacity:1"
             id="path1616" />
        </g>
        <g
           id="g1618"
           transform="translate(125.8172,592.9782)">
          <path
             d="m 0,0 c 0.408,0 0.711,0.109 0.908,0.328 0.197,0.218 0.296,0.594 0.296,1.13 V 2.746 C 1.204,3.421 1.087,3.89 0.855,4.15 0.623,4.411 0.239,4.541 -0.296,4.541 H -1.331 V 0 Z m -0.422,6.653 c 0.464,0 0.813,0.119 1.045,0.359 0.232,0.239 0.348,0.64 0.348,1.203 v 0.824 c 0,0.535 -0.095,0.922 -0.285,1.162 -0.19,0.239 -0.489,0.359 -0.897,0.359 h -1.12 V 6.653 Z m -3.232,6.019 h 3.506 c 1.196,0 2.07,-0.278 2.619,-0.835 C 3.02,11.281 3.294,10.426 3.294,9.271 V 8.68 C 3.294,7.92 3.171,7.3 2.925,6.822 2.678,6.343 2.302,5.998 1.795,5.787 V 5.745 C 2.949,5.35 3.527,4.322 3.527,2.661 V 1.394 c 0,-1.14 -0.299,-2.01 -0.898,-2.608 C 2.031,-1.812 1.154,-2.112 0,-2.112 h -3.654 z"
             style="fill:none;stroke:#e52822;stroke-width:0.75;stroke-linecap:butt;stroke-linejoin:miter;stroke-miterlimit:10;stroke-dasharray:none;stroke-opacity:1"
             id="path1620" />
        </g>
        <g
           id="g1622"
           transform="translate(130.6952,605.6501)">
          <path
             d="m 0,0 h 2.323 v -12.672 h 3.823 v -2.112 H 0 Z"
             style="fill:none;stroke:#e52822;stroke-width:0.75;stroke-linecap:butt;stroke-linejoin:miter;stroke-miterlimit:10;stroke-dasharray:none;stroke-opacity:1"
             id="path1624" />
        </g>
        <g
           id="g1626"
           transform="translate(137.9603,605.6501)">
          <path
             d="M 0,0 H 6.336 V -2.112 H 2.323 V -6.019 H 5.512 V -8.131 H 2.323 v -4.541 h 4.013 v -2.112 H 0 Z"
             style="fill:none;stroke:#e52822;stroke-width:0.75;stroke-linecap:butt;stroke-linejoin:miter;stroke-miterlimit:10;stroke-dasharray:none;stroke-opacity:1"
             id="path1628" />
        </g>
        <g
           id="g1630"
           transform="translate(148.7943,599.3141)">
          <path
             d="M 0,0 C 0.464,0 0.813,0.12 1.045,0.359 1.278,0.598 1.394,1 1.394,1.563 v 1.14 C 1.394,3.238 1.299,3.625 1.109,3.865 0.919,4.104 0.62,4.224 0.211,4.224 H -0.845 V 0 Z m -3.168,6.336 h 3.442 c 1.197,0 2.07,-0.278 2.62,-0.835 C 3.442,4.945 3.717,4.09 3.717,2.936 V 2.028 c 0,-1.535 -0.507,-2.507 -1.52,-2.915 v -0.042 c 0.562,-0.169 0.96,-0.514 1.193,-1.035 0.232,-0.521 0.348,-1.218 0.348,-2.091 v -2.597 c 0,-0.423 0.014,-0.765 0.043,-1.025 0.027,-0.26 0.097,-0.517 0.211,-0.771 H 1.626 c -0.084,0.24 -0.141,0.465 -0.169,0.677 -0.028,0.21 -0.042,0.591 -0.042,1.14 v 2.703 c 0,0.676 -0.109,1.147 -0.328,1.415 -0.218,0.267 -0.594,0.401 -1.129,0.401 h -0.803 v -6.336 h -2.323 z"
             style="fill:none;stroke:#e52822;stroke-width:0.75;stroke-linecap:butt;stroke-linejoin:miter;stroke-miterlimit:10;stroke-dasharray:none;stroke-opacity:1"
             id="path1632" />
        </g>
        <g
           id="g1634"
           transform="translate(158.6996,594.2243)">
          <path
             d="m 0,0 v 8.068 c 0,0.971 -0.401,1.457 -1.204,1.457 -0.802,0 -1.203,-0.486 -1.203,-1.457 V 0 c 0,-0.971 0.401,-1.457 1.203,-1.457 C -0.401,-1.457 0,-0.971 0,0 Z M -3.822,-2.598 C -4.428,-1.95 -4.73,-1.035 -4.73,0.148 V 7.92 c 0,1.183 0.302,2.098 0.908,2.746 0.605,0.647 1.478,0.971 2.618,0.971 1.141,0 2.014,-0.324 2.619,-0.971 C 2.021,10.018 2.323,9.103 2.323,7.92 V 0.148 c 0,-1.183 -0.302,-2.098 -0.908,-2.746 -0.605,-0.648 -1.478,-0.971 -2.619,-0.971 -1.14,0 -2.013,0.323 -2.618,0.971 z"
             style="fill:none;stroke:#e52822;stroke-width:0.75;stroke-linecap:butt;stroke-linejoin:miter;stroke-miterlimit:10;stroke-dasharray:none;stroke-opacity:1"
             id="path1636" />
        </g>
        <g
           id="g1638"
           transform="translate(116.9471,573.6393)">
          <path
             d="M 0,0 C 0.38,0 0.672,0.113 0.876,0.338 1.08,0.563 1.183,0.929 1.183,1.437 V 9.124 C 1.183,9.63 1.08,9.997 0.876,10.222 0.672,10.447 0.38,10.56 0,10.56 H -1.183 V 0 Z m -3.506,12.672 h 3.548 c 1.154,0 2.02,-0.31 2.598,-0.929 0.577,-0.62 0.865,-1.528 0.865,-2.724 V 1.542 C 3.505,0.345 3.217,-0.563 2.64,-1.183 2.062,-1.802 1.196,-2.112 0.042,-2.112 h -3.548 z"
             style="fill:none;stroke:#e52822;stroke-width:0.75;stroke-linecap:butt;stroke-linejoin:miter;stroke-miterlimit:10;stroke-dasharray:none;stroke-opacity:1"
             id="path1640" />
        </g>
        <path
           d="m 122.015,586.311 h 2.323 v -14.784 h -2.323 z"
           style="fill:none;stroke:#e52822;stroke-width:0.75;stroke-linecap:butt;stroke-linejoin:miter;stroke-miterlimit:10;stroke-dasharray:none;stroke-opacity:1"
           id="path1642" />
        <g
           id="g1644"
           transform="translate(126.7884,572.2775)">
          <path
             d="m 0,0 c -0.591,0.64 -0.887,1.559 -0.887,2.756 v 7.772 c 0,1.197 0.296,2.115 0.887,2.756 0.591,0.64 1.45,0.961 2.577,0.961 1.126,0 1.985,-0.321 2.576,-0.961 C 5.744,12.643 6.04,11.725 6.04,10.528 V 9.261 H 3.844 v 1.415 c 0,0.971 -0.402,1.457 -1.204,1.457 -0.803,0 -1.203,-0.486 -1.203,-1.457 V 2.587 c 0,-0.958 0.4,-1.436 1.203,-1.436 0.802,0 1.204,0.478 1.204,1.436 V 5.48 H 2.682 V 7.592 H 6.04 V 2.756 C 6.04,1.559 5.744,0.64 5.153,0 4.562,-0.641 3.703,-0.961 2.577,-0.961 1.45,-0.961 0.591,-0.641 0,0 Z"
             style="fill:none;stroke:#e52822;stroke-width:0.75;stroke-linecap:butt;stroke-linejoin:miter;stroke-miterlimit:10;stroke-dasharray:none;stroke-opacity:1"
             id="path1646" />
        </g>
        <path
           d="m 134.327,586.311 h 2.323 v -14.784 h -2.323 z"
           style="fill:none;stroke:#e52822;stroke-width:0.75;stroke-linecap:butt;stroke-linejoin:miter;stroke-miterlimit:10;stroke-dasharray:none;stroke-opacity:1"
           id="path1648" />
        <g
           id="g1650"
           transform="translate(140.1991,584.1994)">
          <path
             d="m 0,0 h -2.429 v 2.112 h 7.18 V 0 H 2.323 V -12.672 H 0 Z"
             style="fill:none;stroke:#e52822;stroke-width:0.75;stroke-linecap:butt;stroke-linejoin:miter;stroke-miterlimit:10;stroke-dasharray:none;stroke-opacity:1"
             id="path1652" />
        </g>
        <g
           id="g1654"
           transform="translate(149.4286,576.4274)">
          <path
             d="M 0,0 -1.035,7.307 H -1.078 L -2.091,0 Z M -2.535,9.884 H 0.612 L 3.02,-4.9 H 0.697 l -0.423,2.936 v -0.042 h -2.64 L -2.788,-4.9 h -2.154 z"
             style="fill:none;stroke:#e52822;stroke-width:0.75;stroke-linecap:butt;stroke-linejoin:miter;stroke-miterlimit:10;stroke-dasharray:none;stroke-opacity:1"
             id="path1656" />
        </g>
        <g
           id="g1658"
           transform="translate(153.5677,586.3112)">
          <path
             d="m 0,0 h 2.323 v -12.672 h 3.823 v -2.112 H 0 Z"
             style="fill:none;stroke:#e52822;stroke-width:0.75;stroke-linecap:butt;stroke-linejoin:miter;stroke-miterlimit:10;stroke-dasharray:none;stroke-opacity:1"
             id="path1660" />
        </g>
      </g>
    </g>
  </g>
</svg>
